<svg width="310" height="35" viewBox="0 0 310 35" fill="none" xmlns="http://www.w3.org/2000/svg">
<path d="M1.275 34C0.975 34 0.705 33.895 0.465 33.685C0.255 33.445 0.15 33.175 0.15 32.875V3.625C0.15 3.295 0.255 3.025 0.465 2.815C0.705 2.605 0.975 2.5 1.275 2.5H6.135C6.855 2.5 7.38 2.83 7.71 3.49L15.63 17.665L23.55 3.49C23.88 2.83 24.405 2.5 25.125 2.5H29.94C30.27 2.5 30.54 2.605 30.75 2.815C30.99 3.025 31.11 3.295 31.11 3.625V32.875C31.11 33.205 30.99 33.475 30.75 33.685C30.54 33.895 30.27 34 29.94 34H24.585C24.255 34 23.97 33.895 23.73 33.685C23.52 33.475 23.415 33.205 23.415 32.875V16L18.375 25.405C17.985 26.095 17.46 26.44 16.8 26.44H14.46C14.07 26.44 13.755 26.35 13.515 26.17C13.275 25.99 13.065 25.735 12.885 25.405L7.8 16V32.875C7.8 33.175 7.695 33.445 7.485 33.685C7.275 33.895 7.005 34 6.675 34H1.275ZM50.4206 34.45C46.8206 34.45 43.9856 33.475 41.9156 31.525C39.8456 29.575 38.7656 26.74 38.6756 23.02V21.445C38.7956 17.905 39.8906 15.145 41.9606 13.165C44.0606 11.155 46.8656 10.15 50.3756 10.15C52.9256 10.15 55.0706 10.675 56.8106 11.725C58.5806 12.745 59.9006 14.155 60.7706 15.955C61.6706 17.755 62.1206 19.825 62.1206 22.165V23.245C62.1206 23.545 62.0156 23.815 61.8056 24.055C61.5956 24.265 61.3256 24.37 60.9956 24.37H46.5956V24.685C46.6556 26.095 47.0006 27.235 47.6306 28.105C48.2606 28.975 49.1756 29.41 50.3756 29.41C51.1256 29.41 51.7406 29.26 52.2206 28.96C52.7006 28.63 53.1356 28.24 53.5256 27.79C53.7956 27.46 54.0056 27.265 54.1556 27.205C54.3356 27.115 54.6056 27.07 54.9656 27.07H60.5456C60.8156 27.07 61.0406 27.16 61.2206 27.34C61.4306 27.49 61.5356 27.7 61.5356 27.97C61.5356 28.75 61.0856 29.65 60.1856 30.67C59.3156 31.69 58.0406 32.575 56.3606 33.325C54.6806 34.075 52.7006 34.45 50.4206 34.45ZM54.2006 19.915V19.825C54.2006 18.355 53.8556 17.2 53.1656 16.36C52.5056 15.49 51.5756 15.055 50.3756 15.055C49.2056 15.055 48.2756 15.49 47.5856 16.36C46.9256 17.2 46.5956 18.355 46.5956 19.825V19.915H54.2006ZM77.7694 34.45C74.8294 34.45 72.5344 33.535 70.8844 31.705C69.2644 29.845 68.3794 27.235 68.2294 23.875L68.1844 22.3L68.2294 20.68C68.3494 17.44 69.2344 14.875 70.8844 12.985C72.5644 11.095 74.8594 10.15 77.7694 10.15C80.4994 10.15 82.7044 11.035 84.3844 12.805V3.175C84.3844 2.845 84.4894 2.575 84.6994 2.365C84.9094 2.155 85.1794 2.05 85.5094 2.05H90.9994C91.3294 2.05 91.5994 2.155 91.8094 2.365C92.0194 2.575 92.1244 2.845 92.1244 3.175V32.875C92.1244 33.175 92.0194 33.445 91.8094 33.685C91.5994 33.895 91.3294 34 90.9994 34H85.9144C85.6144 34 85.3444 33.895 85.1044 33.685C84.8944 33.445 84.7894 33.175 84.7894 32.875V31.435C83.1394 33.445 80.7994 34.45 77.7694 34.45ZM80.2444 28.42C81.5944 28.42 82.5994 28 83.2594 27.16C83.9194 26.29 84.2944 25.18 84.3844 23.83C84.4144 23.44 84.4294 22.87 84.4294 22.12C84.4294 21.4 84.4144 20.845 84.3844 20.455C84.3244 19.225 83.9494 18.205 83.2594 17.395C82.5694 16.585 81.5644 16.18 80.2444 16.18C78.8344 16.18 77.8144 16.6 77.1844 17.44C76.5844 18.28 76.2394 19.435 76.1494 20.905C76.1194 21.205 76.1044 21.67 76.1044 22.3C76.1044 22.93 76.1194 23.395 76.1494 23.695C76.2394 25.165 76.5844 26.32 77.1844 27.16C77.8144 28 78.8344 28.42 80.2444 28.42ZM101.208 7.225C100.878 7.225 100.608 7.12 100.398 6.91C100.188 6.7 100.083 6.43 100.083 6.1V2.05C100.083 1.72 100.188 1.45 100.398 1.24C100.608 1.03 100.878 0.924999 101.208 0.924999H106.608C106.938 0.924999 107.208 1.03 107.418 1.24C107.628 1.45 107.733 1.72 107.733 2.05V6.1C107.733 6.43 107.628 6.7 107.418 6.91C107.208 7.12 106.938 7.225 106.608 7.225H101.208ZM101.253 34C100.923 34 100.653 33.895 100.443 33.685C100.233 33.475 100.128 33.205 100.128 32.875V11.725C100.128 11.395 100.233 11.125 100.443 10.915C100.653 10.705 100.923 10.6 101.253 10.6H106.563C106.893 10.6 107.163 10.705 107.373 10.915C107.583 11.125 107.688 11.395 107.688 11.725V32.875C107.688 33.175 107.583 33.445 107.373 33.685C107.163 33.895 106.893 34 106.563 34H101.253Z" fill="#E53D00"/>
<path d="M124.884 32.515C124.584 32.515 124.314 32.41 124.074 32.2C123.864 31.96 123.759 31.69 123.759 31.39V23.155H115.749C115.419 23.155 115.134 23.05 114.894 22.84C114.684 22.63 114.579 22.36 114.579 22.03V18.745C114.579 18.415 114.684 18.145 114.894 17.935C115.134 17.695 115.419 17.575 115.749 17.575H123.759V9.61C123.759 9.28 123.864 9.01 124.074 8.8C124.314 8.59 124.584 8.485 124.884 8.485H128.574C128.904 8.485 129.174 8.59 129.384 8.8C129.594 9.01 129.699 9.28 129.699 9.61V17.575H137.664C137.994 17.575 138.264 17.695 138.474 17.935C138.684 18.145 138.789 18.415 138.789 18.745V22.03C138.789 22.36 138.684 22.63 138.474 22.84C138.264 23.05 137.994 23.155 137.664 23.155H129.699V31.39C129.699 31.69 129.594 31.96 129.384 32.2C129.174 32.41 128.904 32.515 128.574 32.515H124.884Z" fill="#9EC3C6"/>
<path d="M155.943 34C149.733 34 146.628 31.045 146.628 25.135V16.495H143.118C142.788 16.495 142.503 16.39 142.263 16.18C142.053 15.97 141.948 15.7 141.948 15.37V11.725C141.948 11.395 142.053 11.125 142.263 10.915C142.503 10.705 142.788 10.6 143.118 10.6H146.628V3.175C146.628 2.845 146.733 2.575 146.943 2.365C147.183 2.155 147.453 2.05 147.753 2.05H152.973C153.303 2.05 153.573 2.155 153.783 2.365C153.993 2.575 154.098 2.845 154.098 3.175V10.6H159.723C160.053 10.6 160.323 10.705 160.533 10.915C160.773 11.125 160.893 11.395 160.893 11.725V15.37C160.893 15.7 160.773 15.97 160.533 16.18C160.323 16.39 160.053 16.495 159.723 16.495H154.098V24.505C154.098 26.725 154.953 27.835 156.663 27.835H160.128C160.458 27.835 160.728 27.94 160.938 28.15C161.148 28.36 161.253 28.63 161.253 28.96V32.875C161.253 33.175 161.148 33.445 160.938 33.685C160.728 33.895 160.458 34 160.128 34H155.943ZM168.804 34C168.504 34 168.234 33.895 167.994 33.685C167.784 33.445 167.679 33.175 167.679 32.875V3.175C167.679 2.845 167.784 2.575 167.994 2.365C168.234 2.155 168.504 2.05 168.804 2.05H174.564C174.894 2.05 175.164 2.155 175.374 2.365C175.584 2.575 175.689 2.845 175.689 3.175V13.21C177.489 11.17 179.859 10.15 182.799 10.15C184.539 10.15 186.084 10.54 187.434 11.32C188.814 12.1 189.894 13.255 190.674 14.785C191.454 16.315 191.844 18.16 191.844 20.32V32.875C191.844 33.175 191.739 33.445 191.529 33.685C191.319 33.895 191.049 34 190.719 34H184.914C184.614 34 184.344 33.895 184.104 33.685C183.894 33.445 183.789 33.175 183.789 32.875V20.59C183.789 19.18 183.444 18.1 182.754 17.35C182.094 16.57 181.119 16.18 179.829 16.18C178.539 16.18 177.519 16.57 176.769 17.35C176.049 18.1 175.689 19.18 175.689 20.59V32.875C175.689 33.205 175.584 33.475 175.374 33.685C175.164 33.895 174.894 34 174.564 34H168.804ZM206.667 34.45C205.077 34.45 203.622 34.15 202.302 33.55C201.012 32.92 199.992 32.08 199.242 31.03C198.522 29.95 198.162 28.765 198.162 27.475C198.162 25.405 199.002 23.74 200.682 22.48C202.392 21.22 204.732 20.35 207.702 19.87L213.327 19.015V18.385C213.327 17.245 213.087 16.405 212.607 15.865C212.127 15.325 211.317 15.055 210.177 15.055C209.487 15.055 208.917 15.175 208.467 15.415C208.017 15.655 207.552 15.985 207.072 16.405C206.652 16.765 206.337 17.005 206.127 17.125C206.037 17.365 205.872 17.485 205.632 17.485H200.727C200.427 17.485 200.172 17.395 199.962 17.215C199.782 17.005 199.707 16.765 199.737 16.495C199.767 15.685 200.157 14.785 200.907 13.795C201.687 12.805 202.857 11.95 204.417 11.23C206.007 10.51 207.957 10.15 210.267 10.15C213.957 10.15 216.687 10.975 218.457 12.625C220.227 14.245 221.112 16.435 221.112 19.195V32.875C221.112 33.175 221.007 33.445 220.797 33.685C220.587 33.895 220.317 34 219.987 34H214.767C214.467 34 214.197 33.895 213.957 33.685C213.747 33.445 213.642 33.175 213.642 32.875V31.3C212.982 32.23 212.052 32.995 210.852 33.595C209.682 34.165 208.287 34.45 206.667 34.45ZM208.782 29.32C210.162 29.32 211.272 28.87 212.112 27.97C212.982 27.07 213.417 25.75 213.417 24.01V23.38L209.592 24.055C206.892 24.535 205.542 25.48 205.542 26.89C205.542 27.64 205.857 28.24 206.487 28.69C207.117 29.11 207.882 29.32 208.782 29.32ZM230.015 34C229.685 34 229.415 33.895 229.205 33.685C228.995 33.475 228.89 33.205 228.89 32.875V11.725C228.89 11.395 228.995 11.125 229.205 10.915C229.415 10.705 229.685 10.6 230.015 10.6H235.19C235.52 10.6 235.79 10.705 236 10.915C236.24 11.125 236.36 11.395 236.36 11.725V13.435C237.17 12.445 238.205 11.65 239.465 11.05C240.755 10.45 242.21 10.15 243.83 10.15C246.47 10.15 248.615 11.05 250.265 12.85C251.915 14.62 252.74 17.11 252.74 20.32V32.875C252.74 33.175 252.635 33.445 252.425 33.685C252.215 33.895 251.945 34 251.615 34H245.945C245.645 34 245.375 33.895 245.135 33.685C244.925 33.445 244.82 33.175 244.82 32.875V20.59C244.82 19.18 244.475 18.1 243.785 17.35C243.095 16.57 242.105 16.18 240.815 16.18C239.555 16.18 238.565 16.57 237.845 17.35C237.125 18.1 236.765 19.18 236.765 20.59V32.875C236.765 33.175 236.66 33.445 236.45 33.685C236.24 33.895 235.97 34 235.64 34H230.015ZM261.631 34C261.331 34 261.061 33.895 260.821 33.685C260.611 33.445 260.506 33.175 260.506 32.875V3.175C260.506 2.845 260.611 2.575 260.821 2.365C261.061 2.155 261.331 2.05 261.631 2.05H266.851C267.181 2.05 267.451 2.155 267.661 2.365C267.871 2.575 267.976 2.845 267.976 3.175V18.25L274.231 11.365C274.291 11.305 274.396 11.2 274.546 11.05C274.726 10.9 274.906 10.795 275.086 10.735C275.266 10.645 275.476 10.6 275.716 10.6H281.746C282.016 10.6 282.241 10.705 282.421 10.915C282.631 11.095 282.736 11.32 282.736 11.59C282.736 11.92 282.616 12.175 282.376 12.355L274.276 21.085L283.501 32.29C283.741 32.53 283.861 32.755 283.861 32.965C283.861 33.265 283.756 33.52 283.546 33.73C283.366 33.91 283.126 34 282.826 34H276.661C276.271 34 275.971 33.94 275.761 33.82C275.581 33.7 275.356 33.505 275.086 33.235L267.976 24.685V32.875C267.976 33.175 267.871 33.445 267.661 33.685C267.451 33.895 267.181 34 266.851 34H261.631ZM298.675 34.45C296.245 34.45 294.205 34.105 292.555 33.415C290.935 32.725 289.735 31.9 288.955 30.94C288.175 29.98 287.785 29.125 287.785 28.375C287.785 28.075 287.89 27.835 288.1 27.655C288.34 27.445 288.595 27.34 288.865 27.34H293.995C294.175 27.34 294.34 27.415 294.49 27.565C294.85 27.805 295.12 28 295.3 28.15C295.96 28.63 296.53 28.99 297.01 29.23C297.52 29.44 298.135 29.545 298.855 29.545C299.725 29.545 300.43 29.38 300.97 29.05C301.54 28.69 301.825 28.195 301.825 27.565C301.825 27.055 301.675 26.65 301.375 26.35C301.105 26.05 300.565 25.765 299.755 25.495C298.945 25.195 297.715 24.88 296.065 24.55C293.575 24.04 291.655 23.215 290.305 22.075C288.985 20.905 288.325 19.345 288.325 17.395C288.325 16.165 288.715 14.995 289.495 13.885C290.275 12.775 291.43 11.875 292.96 11.185C294.52 10.495 296.365 10.15 298.495 10.15C300.625 10.15 302.485 10.48 304.075 11.14C305.665 11.8 306.865 12.61 307.675 13.57C308.515 14.5 308.935 15.355 308.935 16.135C308.935 16.405 308.83 16.645 308.62 16.855C308.44 17.065 308.215 17.17 307.945 17.17H303.265C303.025 17.17 302.8 17.095 302.59 16.945C302.2 16.735 301.855 16.51 301.555 16.27C301.045 15.88 300.565 15.58 300.115 15.37C299.665 15.16 299.11 15.055 298.45 15.055C297.67 15.055 297.04 15.235 296.56 15.595C296.11 15.955 295.885 16.42 295.885 16.99C295.885 17.44 296.005 17.815 296.245 18.115C296.515 18.415 297.055 18.715 297.865 19.015C298.705 19.285 299.935 19.57 301.555 19.87C304.465 20.38 306.58 21.28 307.9 22.57C309.25 23.86 309.925 25.375 309.925 27.115C309.925 29.335 308.935 31.12 306.955 32.47C304.975 33.79 302.215 34.45 298.675 34.45Z" fill="#03838C"/>
</svg>
